<svg data-v-0dd9719b="" version="1.0" xmlns="http://www.w3.org/2000/svg" xmlns:xlink="http://www.w3.org/1999/xlink" width="100%" height="100%" viewBox="0 0 340.000000 250.000000" preserveAspectRatio="xMidYMid meet" color-interpolation-filters="sRGB" style="margin: auto;"> <rect data-v-0dd9719b="" x="0" y="0" width="100%" height="100%" fill="#fff" fill-opacity="1" class="background"></rect> <rect data-v-0dd9719b="" x="0" y="0" width="100%" height="100%" fill="url(#watermark)" fill-opacity="1" class="watermarklayer"></rect> <g data-v-0dd9719b="" fill="#be0081" class="icon-text-wrapper icon-svg-group iconsvg" transform="translate(48.915000915527344,94.99790000915527)"><g class="iconsvg-imagesvg" transform="translate(0,0)"><g><rect fill="#be0081" fill-opacity="0" stroke-width="2" x="0" y="0" width="60" height="60.004200294020585" class="image-rect"></rect> <svg x="0" y="0" width="60" height="60.004200294020585" filtersec="colorsb4418534566" class="image-svg-svg primary" style="overflow: visible;"><svg xmlns="http://www.w3.org/2000/svg" viewBox="-0.000011972821994277183 -0.008099238388240337 134.00213623046875 134.0115509033203"><g><path d="M14.76 108.95a67.14 67.14 0 0 1-7-10.62q-1.32-.51-2.53-1c.47 4.43 3.89 8.39 9.53 11.62z" fill="none"></path><path d="M75.16 40.8c18.84-1.51 35.38-6.6 45.94-13.33a67.39 67.39 0 0 0-11.72-12.37c-10.26 4.83-23.91 8.36-39.07 9.57-19.77 1.59-37.65-1.11-49.11-6.56a67.51 67.51 0 0 0-6.47 7c6.73 11.2 31.55 18.01 60.43 15.69z" fill="#fed600"></path><path d="M69.67 104.21c-25.14 2-47.74-.45-61.9-5.88a67.14 67.14 0 0 0 7 10.62c12.19 7 34.73 10.56 60.11 8.53 18.19-1.46 34.46-5.54 46.25-11a66.77 66.77 0 0 0 9.49-18.42c-13.01 7.85-35.3 14.09-60.95 16.15z" fill="#be0081"></path><path d="M77.44 67.27c22.45-1.8 42.2-7.19 55.1-14.19a66.59 66.59 0 0 0-8.75-21.63C115 41.12 94.6 49 70.3 50.95 39.94 53.39 14.06 45.73 9 33.48a66.6 66.6 0 0 0-6.29 14.61c4.03 13.76 36.36 22.25 74.73 19.18z" fill="#f39800"></path><path d="M37.63 127.23a67 67 0 0 0 70.86-7.63 151.88 151.88 0 0 1-39.18 8.07 161.34 161.34 0 0 1-31.68-.44z" fill="#0086d1"></path><path d="M75.16 14.53a129.32 129.32 0 0 0 26.55-4.85 67 67 0 0 0-70.22.5c11.3 3.94 26.79 5.71 43.67 4.35z" fill="#8cb815"></path><path d="M75.94 94c23.1-1.86 43.46-7.11 56.78-13.87a67.33 67.33 0 0 0 .84-20.78C121.61 68.45 98.45 75.81 71.42 78 38.5 80.63 10 74.75.06 64.34 0 65.22 0 66.11 0 67a67.28 67.28 0 0 0 1.26 13C10 90.72 40.45 96.8 75.94 94z" fill="#e60012"></path><path d="M5.21 97a10.87 10.87 0 0 1 0-1.32c-.37.35-.71.7-1 1.06l1.09.5c-.07-.03-.09-.11-.09-.24z" fill="#fff"></path></g></svg></svg> <!----></g></g> <g transform="translate(67,14.032099723815918)"><g data-gra="path-name" fill-rule="" class="tp-name iconsvg-namesvg"><g transform="scale(1)"><g><path d="M15.36-11.99L9.95-11.99 9.95 0 3.22 0 3.22-31.61 18.67-31.61Q25.31-31.61 27.91-29.91L27.91-29.91Q29.72-28.77 30.69-26.9 31.66-25.02 31.66-22.8L31.66-22.8Q31.66-18.29 29.38-15.83L29.38-15.83Q27.96-14.36 25.64-13.6L25.64-13.6Q27.49-12.94 28.44-12.2 29.38-11.47 30.14-10.05L30.14-10.05Q30.71-8.91 30.97-7.87 31.23-6.82 31.37-4.79L31.37-4.79Q31.66-1.37 32.13 0L32.13 0 24.6 0Q24.27-1.09 23.89-4.5L23.89-4.5Q23.65-7.25 22.91-8.72 22.18-10.19 20.71-11.04L20.71-11.04Q18.86-12.04 15.36-11.99L15.36-11.99ZM9.95-25.97L9.95-17.63 19.38-17.63Q21.75-17.63 22.75-18.34L22.75-18.34Q24.27-19.38 24.27-21.99L24.27-21.99Q24.27-24.88 21.99-25.69L21.99-25.69Q21.18-25.97 19.38-25.97L19.38-25.97 9.95-25.97ZM42.42-14.03L55.78-14.03 55.78-9.1 42.42-9.1Q42.61-6.82 43.89-5.88 45.17-4.93 48.06-4.93L48.06-4.93 55.78-4.93 55.78 0 47.35 0Q44.6 0 42.87-0.5 41.14-1 39.62-2.13L39.62-2.13Q35.4-5.4 35.4-11.85L35.4-11.85Q35.4-16.02 37.63-19.15L37.63-19.15Q39.15-21.28 41.28-22.18 43.41-23.08 46.87-23.08L46.87-23.08 55.78-23.08 55.78-18.15 47.35-18.15Q44.74-18.15 43.7-17.27 42.65-16.4 42.42-14.03L42.42-14.03ZM70.47-23.08L76.45-23.08 76.45-31.61 82.75-31.61 82.75 0 71.85 0Q68.53 0 66.82-0.52L66.82-0.52Q62.8-1.8 60.81-5.55L60.81-5.55Q59.43-8.06 59.43-11.71L59.43-11.71Q59.43-17.63 63.41-20.9L63.41-20.9Q66.02-23.08 70.47-23.08L70.47-23.08ZM71.85-4.93L76.45-4.93 76.45-18.15 71.85-18.15Q68.82-18.15 67.25-16.11L67.25-16.11Q65.88-14.41 65.88-11.71L65.88-11.71Q65.88-7.77 68.15-6.07L68.15-6.07Q69.72-4.93 71.85-4.93L71.85-4.93ZM99.62-23.41L99.62-23.41Q106.02-23.41 109.05-19.72L109.05-19.72Q111.85-16.35 111.85-11.23L111.85-11.23Q111.85-5.83 108.34-2.61L108.34-2.61Q105.12 0.33 99.53 0.33L99.53 0.33Q93.74 0.33 90.47-2.99L90.47-2.99Q87.44-5.97 87.44-11.71L87.44-11.71Q87.44-16.54 90.33-19.76L90.33-19.76Q93.55-23.36 99.62-23.41ZM99.67-18.58L99.67-18.58Q93.93-18.58 93.93-11.47L93.93-11.47Q93.93-8.58 94.88-7.06L94.88-7.06Q96.45-4.5 99.72-4.5L99.72-4.5Q105.36-4.5 105.36-11.56L105.36-11.56Q105.36-18.48 99.67-18.58ZM116.54 0L116.54-23.08 139.86-23.08Q143.03-23.08 144.69-22.61 146.35-22.13 147.49-20.95L147.49-20.95Q149.57-18.67 149.57-14.69L149.57-14.69 149.57 0 143.22 0 143.22-13.7Q143.22-15.36 143.08-16.02 142.94-16.68 142.42-17.2L142.42-17.2Q141.42-18.15 139.43-18.15L139.43-18.15 136.07-18.15 136.07 0 129.72 0 129.72-18.15 122.89-18.15 122.89 0 116.54 0ZM166.16-23.41L166.16-23.41Q172.56-23.41 175.59-19.72L175.59-19.72Q178.39-16.35 178.39-11.23L178.39-11.23Q178.39-5.83 174.88-2.61L174.88-2.61Q171.66 0.33 166.07 0.33L166.07 0.33Q160.28 0.33 157.01-2.99L157.01-2.99Q153.98-5.97 153.98-11.71L153.98-11.71Q153.98-16.54 156.87-19.76L156.87-19.76Q160.09-23.36 166.16-23.41ZM166.21-18.58L166.21-18.58Q160.47-18.58 160.47-11.47L160.47-11.47Q160.47-8.58 161.42-7.06L161.42-7.06Q162.99-4.5 166.26-4.5L166.26-4.5Q171.9-4.5 171.9-11.56L171.9-11.56Q171.9-18.48 166.21-18.58Z" transform="translate(-3.2200000286102295, 31.610000610351562)"></path></g> <!----> <!----> <!----> <!----> <!----> <!----> <!----></g></g> <!----></g></g><defs v-gra="od"></defs></svg>